<?xml version="1.0" encoding="UTF-8"?> <!-- Creator: CorelDRAW --> <svg xmlns="http://www.w3.org/2000/svg" xmlns:xlink="http://www.w3.org/1999/xlink" xmlns:xodm="http://www.corel.com/coreldraw/odm/2003" xml:space="preserve" width="234px" height="288px" style="shape-rendering:geometricPrecision; text-rendering:geometricPrecision; image-rendering:optimizeQuality; fill-rule:evenodd; clip-rule:evenodd" viewBox="0 0 101.24 124.39"> <defs> <style type="text/css"> <![CDATA[ .str0 {stroke:#E23A37;stroke-width:8.64;stroke-linecap:round;stroke-linejoin:round;stroke-miterlimit:22.9256} .fil0 {fill:none} ]]> </style> </defs> <g id="Слой_x0020_1"> <metadata id="CorelCorpID_0Corel-Layer"></metadata> <g id="_105553217452736"> <g id="_55-Boxes" data-name="55-Boxes"> <path class="fil0 str0" d="M12.04 81.49l30.87 0c4.26,0 7.71,3.45 7.71,7.72l0 23.15c0,4.26 -3.45,7.71 -7.71,7.71l-30.87 0c-4.26,0 -7.72,-3.45 -7.72,-7.72l0 -23.14c0,-4.27 3.46,-7.72 7.72,-7.72z"></path> <path class="fil0 str0" d="M19.76 81.49l0 15.43c0,0 0,3.86 5.14,3.86l5.15 0c0,0 5.14,0 5.14,-3.86l0 -15.43"></path> <path class="fil0 str0" d="M58.34 81.49l30.87 0c4.26,0 7.71,3.45 7.71,7.72l0 23.15c0,4.26 -3.45,7.71 -7.71,7.71l-30.87 0c-4.26,0 -7.72,-3.45 -7.72,-7.72l0 -23.14c0,-4.27 3.46,-7.72 7.72,-7.72z"></path> <path class="fil0 str0" d="M66.06 81.49l0 15.43c0,0 0,3.86 5.14,3.86l5.15 0c0,0 5.14,0 5.14,-3.86l0 -15.43"></path> <path class="fil0 str0" d="M12.04 42.91l30.87 0c4.26,0 7.71,3.45 7.71,7.71l0 23.15c0,4.26 -3.45,7.72 -7.71,7.72l-30.87 0c-4.26,0 -7.72,-3.46 -7.72,-7.72l0 -23.15c0,-4.26 3.46,-7.71 7.72,-7.71z"></path> <path class="fil0 str0" d="M19.76 42.91l0 15.43c0,0 0,3.86 5.14,3.86l5.15 0c0,0 5.14,0 5.14,-3.86l0 -15.43"></path> <path class="fil0 str0" d="M58.34 42.91l30.87 0c4.26,0 7.71,3.45 7.71,7.71l0 23.15c0,4.26 -3.45,7.72 -7.71,7.72l-30.87 0c-4.26,0 -7.72,-3.46 -7.72,-7.72l0 -23.15c0,-4.26 3.46,-7.71 7.72,-7.71z"></path> <path class="fil0 str0" d="M66.06 42.91l0 15.43c0,0 0,3.86 5.14,3.86l5.15 0c0,0 5.14,0 5.14,-3.86l0 -15.43"></path> <path class="fil0 str0" d="M35.19 4.32l30.87 0c4.26,0 7.71,3.46 7.71,7.72l0 23.15c0,4.26 -3.45,7.72 -7.71,7.72l-30.87 0c-4.26,0 -7.72,-3.46 -7.72,-7.72l0 -23.15c0,-4.26 3.46,-7.72 7.72,-7.72z"></path> <path class="fil0 str0" d="M42.91 4.32l0 15.44c0,0 0,3.85 5.14,3.85l5.15 0c0,0 5.14,0 5.14,-3.85l0 -15.44"></path> </g> </g> </g> </svg> 