<?xml version="1.0" encoding="UTF-8"?> <!-- Creator: CorelDRAW --> <svg xmlns="http://www.w3.org/2000/svg" xmlns:xlink="http://www.w3.org/1999/xlink" xmlns:xodm="http://www.corel.com/coreldraw/odm/2003" xml:space="preserve" width="385px" height="288px" style="shape-rendering:geometricPrecision; text-rendering:geometricPrecision; image-rendering:optimizeQuality; fill-rule:evenodd; clip-rule:evenodd" viewBox="0 0 64.57 48.43"> <defs> <style type="text/css"> <![CDATA[ .fil0 {fill:#E23A37;fill-rule:nonzero} ]]> </style> </defs> <g id="Слой_x0020_1"> <metadata id="CorelCorpID_0Corel-Layer"></metadata> <g id="_105553218505088"> <path class="fil0" d="M59.61 43.46l-4.97 0 0 -4.96 4.34 0c0.35,0 0.63,-0.28 0.63,-0.63l0 -11.35 -4.08 -11.21c-0.09,-0.24 -0.32,-0.41 -0.58,-0.41l-16.45 0 0 -4.97 16.88 0c2.09,0 3.96,1.31 4.67,3.27l4.37 12.03c0.1,0.27 0.15,0.56 0.15,0.85l0 12.42c0,2.74 -2.22,4.96 -4.96,4.96z"></path> <path class="fil0" d="M13.66 43.46l-8.07 0c-3.09,0 -5.59,-2.5 -5.59,-5.59l0 -32.28c0,-3.09 2.5,-5.59 5.59,-5.59l29.8 0c3.09,0 5.59,2.5 5.59,5.59l0 35.39 -4.97 0 0 -35.39c0,-0.34 -0.28,-0.62 -0.62,-0.62l-29.8 0c-0.34,0 -0.62,0.28 -0.62,0.62l0 32.28c0,0.35 0.28,0.63 0.62,0.63l8.07 0 0 4.96z"></path> <polygon class="fil0" points="44.7,38.5 44.7,43.46 23.59,43.46 23.59,38.5 "></polygon> <path class="fil0" d="M49.67 38.5c-1.37,0 -2.48,1.11 -2.48,2.48 0,1.37 1.11,2.48 2.48,2.48 1.37,0 2.48,-1.11 2.48,-2.48 0,-1.37 -1.11,-2.48 -2.48,-2.48zm0 -4.97c4.12,0 7.45,3.33 7.45,7.45 0,4.11 -3.33,7.45 -7.45,7.45 -4.11,0 -7.45,-3.34 -7.45,-7.45 0,-4.12 3.34,-7.45 7.45,-7.45z"></path> <path class="fil0" d="M18.63 38.5c-1.38,0 -2.49,1.11 -2.49,2.48 0,1.37 1.11,2.48 2.49,2.48 1.37,0 2.48,-1.11 2.48,-2.48 0,-1.37 -1.11,-2.48 -2.48,-2.48zm0 -4.97c4.11,0 7.45,3.33 7.45,7.45 0,4.11 -3.34,7.45 -7.45,7.45 -4.12,0 -7.45,-3.34 -7.45,-7.45 0,-4.12 3.33,-7.45 7.45,-7.45z"></path> <path class="fil0" d="M28.97 11.8c1.02,0.91 1.12,2.48 0.21,3.51l-9.94 11.17c-0.45,0.52 -1.14,0.84 -1.86,0.84 -0.65,0 -1.29,-0.26 -1.75,-0.73l-4.97 -4.97c-0.97,-0.97 -0.97,-2.54 0,-3.51 0.97,-0.97 2.54,-0.97 3.51,0l3.11 3.11 8.18 -9.21c0.91,-1.03 2.48,-1.12 3.51,-0.21z"></path> </g> </g> </svg> 