<?xml version="1.0" encoding="UTF-8"?> <!-- Creator: CorelDRAW --> <svg xmlns="http://www.w3.org/2000/svg" xmlns:xlink="http://www.w3.org/1999/xlink" xmlns:xodm="http://www.corel.com/coreldraw/odm/2003" xml:space="preserve" width="354px" height="294px" style="shape-rendering:geometricPrecision; text-rendering:geometricPrecision; image-rendering:optimizeQuality; fill-rule:evenodd; clip-rule:evenodd" viewBox="0 0 105.3 87.4"> <defs> <style type="text/css"> <![CDATA[ .str0 {stroke:#E23A37;stroke-width:1.49;stroke-miterlimit:22.9256} .fil0 {fill:#E23A37;fill-rule:nonzero} ]]> </style> </defs> <g id="Слой_x0020_1"> <metadata id="CorelCorpID_0Corel-Layer"></metadata> <g id="_105553218818240"> <path class="fil0 str0" d="M93.81 79.49c1.98,0 3.58,1.61 3.58,3.58 0,1.98 -1.6,3.58 -3.58,3.58 -6.48,0 -9.89,-2.96 -12.64,-5.35 -2.39,-2.09 -4.13,-3.59 -7.94,-3.59 -3.8,0 -5.54,1.5 -7.94,3.59 -2.74,2.38 -6.15,5.35 -12.63,5.35 -6.49,0 -9.9,-2.96 -12.64,-5.35 -2.4,-2.09 -4.14,-3.59 -7.95,-3.59 -3.81,0 -5.54,1.5 -7.94,3.59 -2.75,2.39 -6.16,5.35 -12.65,5.35 -1.97,0 -3.58,-1.6 -3.58,-3.58 0,-1.97 1.61,-3.58 3.58,-3.58 3.81,0 5.55,-1.5 7.95,-3.59 2.74,-2.39 6.15,-5.35 12.64,-5.35 6.49,0 9.9,2.96 12.64,5.35 2.41,2.09 4.14,3.59 7.95,3.59 3.8,0 5.54,-1.5 7.94,-3.59 2.74,-2.39 6.15,-5.35 12.63,-5.35 6.49,0 9.9,2.96 12.64,5.35 2.4,2.09 4.14,3.59 7.94,3.59z"></path> <path class="fil0 str0" d="M83.07 49.07c1.98,0 3.58,1.6 3.58,3.58 0,1.98 -1.6,3.58 -3.58,3.58 -0.31,0 -1.47,0 -1.79,0 -1.97,0 -3.57,-1.6 -3.57,-3.58 0,-1.98 1.6,-3.58 3.57,-3.58 0.32,0 1.48,0 1.79,0z"></path> <path class="fil0 str0" d="M13.5 71.54c-0.97,0.79 -5.55,0.73 -7.29,2.19 -2.99,-4.49 -5.47,-10.33 -5.47,-17.5l0 -12.53 63.11 0 3.72 -5.57c0.67,-0.99 1.78,-1.59 2.98,-1.59l30.42 0c1.97,0 3.58,1.59 3.58,3.55 0.01,12.31 -5.12,24.4 -9.38,32.34 -1.79,-0.27 -4.64,-2.38 -6.33,-3.4 3.44,-6.42 7.52,-15.78 8.39,-25.33l-24.77 0 -3.73 5.57c-0.66,0.99 -1.78,1.59 -2.98,1.59l-57.85 0 0 5.37c0,6.42 2.7,11.59 5.6,15.31z"></path> <path class="fil0 str0" d="M29.38 11.48c1.98,0 3.58,1.61 3.58,3.58l0 8.95c0,1.2 -0.6,2.32 -1.59,2.98l-3.78 2.52 0 17.77 -7.16 0 0 -19.69c0,-1.2 0.6,-2.31 1.6,-2.98l3.77 -2.51 0 -3.46 -17.9 0 0 28.64 -7.16 0 0 -32.22c0,-1.97 1.61,-3.58 3.58,-3.58l25.06 0z"></path> <path class="fil0 str0" d="M15.06 0.74c1.98,0 3.58,1.61 3.58,3.58l0 10.74 -7.16 0 0 -10.74c0,-1.97 1.61,-3.58 3.58,-3.58z"></path> </g> </g> </svg> 