<?xml version="1.0" encoding="UTF-8"?> <!-- Creator: CorelDRAW --> <svg xmlns="http://www.w3.org/2000/svg" xmlns:xlink="http://www.w3.org/1999/xlink" xmlns:xodm="http://www.corel.com/coreldraw/odm/2003" xml:space="preserve" width="473px" height="287px" style="shape-rendering:geometricPrecision; text-rendering:geometricPrecision; image-rendering:optimizeQuality; fill-rule:evenodd; clip-rule:evenodd" viewBox="0 0 82.6 50.15"> <defs> <style type="text/css"> <![CDATA[ .fil0 {fill:#E23A37} ]]> </style> </defs> <g id="Слой_x0020_1"> <metadata id="CorelCorpID_0Corel-Layer"></metadata> <g id="_105553217173664"> <path class="fil0" d="M69.32 44.25c-1.92,0 -3.54,-1.24 -4.15,-2.95l8.31 0c-0.61,1.71 -2.24,2.95 -4.16,2.95zm-14.75 0c-1.92,0 -3.54,-1.24 -4.15,-2.95l8.31 0c-0.61,1.71 -2.24,2.95 -4.16,2.95zm-26.55 0c-1.92,0 -3.54,-1.24 -4.15,-2.95l8.31 0c-0.61,1.71 -2.23,2.95 -4.16,2.95zm-14.74 0c-1.93,0 -3.55,-1.24 -4.16,-2.95l8.31 0c-0.61,1.71 -2.23,2.95 -4.15,2.95zm66.37 -44.25l-56.05 0c-1.63,0 -2.95,1.32 -2.95,2.95 0,1.63 1.32,2.95 2.95,2.95l53.1 0 0 29.5 -70.8 0 0 -29.5 5.9 0c1.63,0 2.95,-1.32 2.95,-2.95 0,-1.63 -1.32,-2.95 -2.95,-2.95l-8.85 0c-1.63,0 -2.95,1.32 -2.95,2.95l0 33.45c0,2.06 1.27,3.81 3.06,4.54 0.57,5.16 4.9,9.21 10.21,9.21 2.89,0 5.5,-1.2 7.38,-3.13 1.88,1.93 4.49,3.13 7.37,3.13 5.19,0 9.46,-3.86 10.18,-8.85l6.2 0c0.72,4.99 4.99,8.85 10.17,8.85 2.89,0 5.5,-1.2 7.38,-3.13 1.88,1.93 4.49,3.13 7.37,3.13 5.32,0 9.65,-4.05 10.22,-9.21 1.79,-0.73 3.06,-2.48 3.06,-4.54l0 -33.45c0,-1.63 -1.32,-2.95 -2.95,-2.95z"></path> <path class="fil0" d="M44.25 26.55l0 -11.8c0,-1.63 -1.32,-2.95 -2.95,-2.95 -1.63,0 -2.95,1.32 -2.95,2.95l0 11.8c0,1.63 1.32,2.95 2.95,2.95 1.63,0 2.95,-1.32 2.95,-2.95z"></path> <path class="fil0" d="M56.05 26.55l0 -11.8c0,-1.63 -1.32,-2.95 -2.95,-2.95 -1.63,0 -2.95,1.32 -2.95,2.95l0 11.8c0,1.63 1.32,2.95 2.95,2.95 1.63,0 2.95,-1.32 2.95,-2.95z"></path> <path class="fil0" d="M67.85 26.55l0 -11.8c0,-1.63 -1.32,-2.95 -2.95,-2.95 -1.63,0 -2.95,1.32 -2.95,2.95l0 11.8c0,1.63 1.32,2.95 2.95,2.95 1.63,0 2.95,-1.32 2.95,-2.95z"></path> <path class="fil0" d="M32.45 26.55l0 -11.8c0,-1.63 -1.32,-2.95 -2.95,-2.95 -1.63,0 -2.95,1.32 -2.95,2.95l0 11.8c0,1.63 1.32,2.95 2.95,2.95 1.63,0 2.95,-1.32 2.95,-2.95z"></path> <path class="fil0" d="M14.75 26.55c0,1.63 1.32,2.95 2.95,2.95 1.63,0 2.95,-1.32 2.95,-2.95l0 -11.8c0,-1.63 -1.32,-2.95 -2.95,-2.95 -1.63,0 -2.95,1.32 -2.95,2.95l0 11.8z"></path> </g> </g> </svg> 